# File produced by Open Asset Import Library (http://www.assimp.sf.net)
# (assimp v5.0.1588609223)

mtllib result.mtl

# 369 vertex positions
v  1.5708551 8.2224617 0.48780903
v  1.6976167 8.0727329 1.88392
v  2.2413955 7.1078944 1.7017705
v  2.1023548 7.4460254 0.25361252
v  1.9680691 5.944488 1.4715184
v  1.8181995 6.0981565 -0.20565876
v  2.1179829 5.9702301 3.0662522
v  2.0903716 7.1563044 3.2354784
v  1.5987369 8.2895021 3.28774
v  0.87651384 8.652812 3.3328817
v  0.93356574 8.4370403 2.0166893
v  -0.0094897179 8.7000046 2.1372106
v  -0.0070301327 8.8912458 3.3673046
v  2.1170866 7.7297578 -1.495595
v  1.3943057 8.4288082 -1.1918044
v  1.8538936 6.3060699 -2.0484407
v  2.2763963 0.017565455 -3.3388765
v  1.7252791 0.016603384 -2.9956179
v  1.7147255 0.023883976 -3.3855119
v  1.2068373 8.3704462 -2.6752057
v  1.916791 7.8935289 -2.9288938
v  1.4948766 7.9919291 -4.1403823
v  0.98933911 8.320262 -3.9230332
v  2.3211083 6.8485546 -3.3223588
v  1.9147896 7.1989837 -4.6443591
v  1.701278 0.017407287 -3.9585524
v  1.6996634 0.013107965 -4.4688554
v  2.0852644 0.012378816 -4.3649607
v  2.2866237 0.015932877 -3.9570858
v  0.77019489 7.9131136 -4.8768249
v  0.57200122 8.1203032 -4.9552107
v  0.97564638 7.2644563 -5.2174559
v  2.3066547 5.6737733 -3.7448301
v  1.9097019 6.227623 -4.902946
v  1.1889274 5.1330996 -1.9546133
v  1.1187761 5.2604542 -0.18661934
v  2.0633085 4.7936234 3.0333886
v  1.3481305 4.7015948 1.6139289
v  1.2033659 8.293088 4.0915565
v  1.7591313 7.587275 4.2361159
v  0.84610134 8.5647078 0.68946141
v  0.73306715 8.7806625 -1.142725
v  0.57592982 8.5342236 -3.8882859
v  0.57167017 8.6658688 -2.6431267
v  0.54841936 8.0759411 -5.8925729
v  0.00046606571 7.9618587 -4.952579
v  0.00016501154 7.8970261 -5.8917327
v  0.55419803 8.5351696 -4.9822063
v  0.54873276 8.052392 -7.0032735
v  0 7.8740482 -7.0033746
v  0.56096667 8.4709101 -7.0295739
v  0.55337816 8.5627747 -5.9571738
v  0.50330865 8.4021406 -8.2657871
v  0.47540009 8.0026808 -8.2579536
v  0 7.8374176 -8.283844
v  0.42647147 8.4192228 -9.4488201
v  0.38991719 8.0209465 -9.4841671
v  0 7.8454638 -9.5048656
v  0.36471796 8.5295916 -10.756935
v  0.35327232 8.1276646 -10.876255
v  0 7.9504356 -10.862404
v  0.3548677 8.6709995 -12.119951
v  0.35748601 8.3141432 -12.220348
v  0 8.1151648 -12.247686
v  0.2659964 8.8551407 -13.633202
v  0.25592703 8.5380554 -13.773048
v  0 8.3742542 -13.789993
v  0 8.8492851 -14.020218
v  0 8.756608 -14.07077
v  0.44514745 10.123686 7.2095423
v  -0.0017401427 10.1164 7.4431596
v  -0.040874876 9.7146969 8.0754385
v  0.44955695 9.6207943 7.8172131
v  -0.0038932438 8.8350849 0.78311968
v  0 9.0471659 -1.1739981
v  -0.0025670526 8.8049297 -3.9518647
v  -1.6209775e-05 8.9618464 -2.6654334
v  0.00011126258 8.9125786 -5.0652022
v  0 8.7660217 -7.1050181
v  0 8.8975496 -6.0372424
v  0 8.6815395 -8.2495213
v  0 8.7108774 -9.4031868
v  0 8.8169889 -10.705015
v  0 8.9532585 -12.056715
v  -0.0011124257 9.1125698 -13.554935
v  -4.6960442e-05 7.7634497 -4.9078803
v  0.00066431978 7.298769 -5.2625604
v  1.5660701 6.3286042 4.7490435
v  1.5664165 5.4309559 4.3639097
v  -0.0011851367 5.0437722 -2.0237231
v  -0.0052202046 4.9967246 -0.29348311
v  1.7977092 5.1743131 -2.2088745
v  1.6249855 4.3553877 -2.5561879
v  2.0792031 4.474668 -4.0890613
v  -5.2209376e-05 5.1102061 -2.9336619
v  1.9237779 4.5820527 -4.5919929
v  -0.00052654085 6.7880034 -5.2201447
v  1.1765816 6.315464 -5.4591227
v  1.5292741 4.7604237 -4.8911061
v  1.0087302 4.8197107 -4.7060857
v  1.6828206 3.2403002 -3.929951
v  2.006824 3.3272109 -4.2616606
v  0.9773041 4.3763576 -3.1950736
v  1.3205285 3.2792616 -4.1321797
v  1.9687623 3.5300546 -4.6971011
v  1.6423808 3.5982687 -5.0291352
v  1.2658496 3.549758 -4.9579391
v  1.7016394 2.5409214 -4.0602975
v  2.0148015 2.6000867 -4.2905769
v  1.386834 2.518198 -4.2199926
v  2.0008543 2.6854198 -4.6806779
v  1.7284427 2.6711226 -4.9860582
v  1.349299 2.5818846 -4.9594512
v  1.7458309 0.98683381 -3.4801507
v  2.1678164 0.85430777 -3.7335675
v  1.3626254 0.83998585 -3.6556141
v  2.0598266 0.90136135 -4.2666783
v  1.3108817 0.81466842 -3.9570429
v  1.2511785 2.4779394 -4.6753464
v  1.3518161 0.80935609 -4.3796659
v  1.7409244 0.85037553 -4.5197148
v  0.82459402 4.6687799 -4.3758764
v  0.00017827356 5.8644433 -4.076118
v  1.2234262 3.3240242 -4.61166
v  -0.036474407 8.6592731 7.9510021
v  0.50609732 9.0383873 7.9182396
v  -0.028025579 9.1603031 8.1527281
v  1.1115549 0.015809106 -3.3847322
v  1.1448102 0.016014002 -3.933347
v  1.2368729 0.015403073 -4.3823891
v  2.1178124 0.49186721 -4.3265238
v  1.713572 0.49121779 -4.5226674
v  2.3664713 0.43553251 -3.8802884
v  1.072893 0.42087269 -3.3057907
v  1.7386203 0.51389611 -2.9201989
v  1.0681617 0.42750239 -3.9061601
v  1.2663026 0.44713503 -4.4034958
v  2.3452921 0.42873573 -3.3191559
v  0.74097896 3.9226072 1.8349861
v  1.532107 3.9505711 2.2633986
v  1.6553025 4.0190969 2.7971613
v  1.3562838 4.2444177 3.5438588
v  0.60232353 4.5818038 3.8556607
v  0.89281571 3.2562034 3.4085462
v  1.3231592 3.2170963 3.2240796
v  -0.010809071 4.5248709 3.1742189
v  0.96529013 3.2132852 2.1318946
v  0.72593737 3.1965802 2.7334633
v  1.4634192 3.2141676 2.2977991
v  1.6593251 3.1882792 2.7851918
v  1.3362796 2.2037942 3.0791903
v  0.98009092 2.2346478 3.0866528
v  1.0043108 0.89299768 2.9966717
v  1.3490167 0.94974887 3.1415877
v  0.88748294 2.2894611 2.6452353
v  1.1339165 2.2889686 2.1963515
v  1.2694544 0.88251054 2.2338386
v  0.99013013 0.83664727 2.5042305
v  1.4969711 2.2545931 2.3308439
v  1.5789381 0.87846953 2.391808
v  1.6085665 2.2160814 2.7466407
v  1.6733454 0.88858366 2.8135736
v  0.64969134 9.1823587 4.1180453
v  0.0045235828 9.4410372 4.1442432
v  -0.0012904216 5.5788789 4.5480185
v  1.9585985 0.01199114 3.2792997
v  1.3493788 0.012021631 3.6326616
v  1.3324869 0.012056731 3.2226794
v  1.8088195 0.012232024 2.5020084
v  1.3313509 0.016287662 2.2183287
v  0.71809834 0.012051165 3.2168612
v  0.85441518 0.012110412 2.5086248
v  1.8433474 0.54192722 2.4726675
v  1.3396164 0.4975276 2.1331623
v  1.9917209 0.53782958 3.297307
v  0.6837346 0.52132702 3.3168991
v  1.3593194 0.53424925 3.7759914
v  0.87992549 0.52876115 2.5107491
v  1.2024449 4.9162178 1.0849754
v  -0.00028114248 5.9730687 4.7449327
v  0.0046746503 10.163221 4.9799409
v  0.5505271 9.7475452 4.9561334
v  1.004532 9.1214104 5.0388508
v  1.2121583 8.0779972 4.9213643
v  1.1621816 7.3827205 5.0575233
v  -0.0023341121 6.8497944 5.1566119
v  0.018715724 10.807585 5.9402442
v  0.32981044 10.786473 5.9686584
v  1.279381 10.090891 5.931448
v  1.3265643 9.2233829 5.8996797
v  0.89240611 8.4206257 5.8543248
v  -0.0015959719 8.0801411 5.9366364
v  1.1821131 10.2323 6.7398376
v  1.1114657 9.4815521 7.0158515
v  0.93180251 8.68009 7.064671
v  -0.029716698 8.2769375 7.0737247
v  0.37720478 10.61879 6.6345768
v  0.00027960225 10.628081 6.8655229
v  1.5306592 11.488159 6.5932503
v  1.5428257 11.50465 6.5613284
v  1.5158099 11.515011 6.5634236
v  1.506918 11.504911 6.6004872
v  1.4188817 10.908098 6.1148977
v  1.3065295 10.943984 6.6415491
v  0.92926866 11.149885 6.1527495
v  0.96411043 11.114029 6.6743698
v  -1.570226 8.2150507 0.52208805
v  -2.0965977 7.4386625 0.23675889
v  -2.233937 7.1058578 1.689364
v  -1.7090925 8.0609369 1.9100063
v  -2.0159645 5.924839 1.4275395
v  -1.8006359 6.0831943 -0.24281144
v  -2.1225972 5.9714403 3.0579059
v  -2.1060798 7.1441889 3.2495286
v  -1.6067899 8.2849836 3.2970967
v  -0.88158709 8.6516552 3.3401241
v  -0.9270944 8.43717 2.018146
v  -2.1205244 7.7202668 -1.4983033
v  -1.4599935 8.4010248 -1.1937149
v  -1.8524861 6.3082604 -2.0493953
v  -2.3115251 0.017032305 -3.3359051
v  -1.7115885 0.021120291 -3.3986914
v  -1.7248217 0.017864801 -3.0122831
v  -1.2176772 8.3644667 -2.6740587
v  -1.0005168 8.3207817 -3.9238727
v  -1.4985234 7.9854078 -4.1369295
v  -1.9199473 7.8890672 -2.9286635
v  -1.9135221 7.2001638 -4.6457014
v  -2.3243966 6.8632627 -3.3223591
v  -1.6986083 0.018658919 -3.9568543
v  -2.2877731 0.01609239 -3.9509778
v  -2.0831411 0.012592372 -4.3638411
v  -1.6990734 0.014647514 -4.4670515
v  -0.57822299 8.1222391 -4.9548287
v  -0.78395331 7.9086871 -4.8654137
v  -1.0070522 7.282063 -5.2164226
v  -1.9062896 6.2305932 -4.9036784
v  -2.2972755 5.6809001 -3.7571309
v  -1.1920943 5.132648 -1.9724216
v  -1.131416 5.2524152 -0.23934776
v  -2.1007617 4.7919621 3.0343769
v  -1.6371478 4.7084126 1.6195374
v  -1.7843874 7.5789003 4.2529955
v  -1.2185453 8.292407 4.0999475
v  -0.83379066 8.5695419 0.73674446
v  -0.73806626 8.7708712 -1.1359848
v  -0.57105535 8.5341349 -3.8924046
v  -0.57004791 8.6663971 -2.6441455
v  -0.54825956 8.0772667 -5.8940349
v  -0.55033344 8.531477 -4.9826508
v  -0.54873276 8.052392 -7.0032735
v  -0.56096667 8.4709101 -7.0295739
v  -0.55327314 8.5627899 -5.9574966
v  -0.50330865 8.4021406 -8.2657871
v  -0.47540009 8.0026808 -8.2579536
v  -0.42647147 8.4192228 -9.4488201
v  -0.38991719 8.0209465 -9.4841671
v  -0.36471796 8.5295916 -10.756935
v  -0.35327232 8.1276646 -10.876255
v  -0.3548677 8.6709995 -12.119951
v  -0.35748601 8.3141432 -12.220348
v  -0.2659964 8.8551407 -13.633202
v  -0.25592703 8.5380554 -13.773048
v  -0.43241656 10.118084 7.2222314
v  -0.42580903 9.6198387 7.8364143
v  0.0011124257 9.1125698 -13.554935
v  -1.5885589 6.3132863 4.7616186
v  -1.5821445 5.4216356 4.3579502
v  -2.0844648 4.474689 -4.1080203
v  -1.6388354 4.3510599 -2.5583923
v  -1.8020625 5.1824679 -2.2084084
v  -1.9145073 4.579175 -4.6050544
v  -1.0087163 4.8197141 -4.7060828
v  -1.5091014 4.7440543 -4.9003181
v  -1.1527574 6.292624 -5.4585781
v  -2.0187168 3.3347223 -4.2915678
v  -1.6880354 3.2406189 -3.936532
v  -1.3201282 3.2712719 -4.1318135
v  -0.97701985 4.3776436 -3.1962774
v  -1.9397588 3.5100846 -4.7670684
v  -1.2679151 3.5339432 -4.9600315
v  -1.5718331 3.5675316 -5.0597458
v  -2.0295849 2.5997362 -4.3245339
v  -1.7159066 2.5457788 -4.0639019
v  -1.3817493 2.5176013 -4.2183781
v  -1.9781696 2.6568856 -4.7544565
v  -1.3438841 2.5604138 -4.9720969
v  -1.6493993 2.6265244 -5.0336804
v  -2.1632025 0.86635876 -3.75019
v  -1.7527398 1.0015392 -3.474824
v  -1.3572843 0.84495354 -3.6526303
v  -2.0294983 0.87732327 -4.2990551
v  -1.3118433 0.81380713 -3.9572105
v  -1.342587 0.80672932 -4.3616004
v  -1.2517235 2.4784813 -4.6740108
v  -1.6887351 0.82499492 -4.5225778
v  -0.82398474 4.6702509 -4.3759184
v  -1.2238179 3.3229165 -4.6123743
v  -0.44645125 9.0158424 7.9311295
v  -1.1040146 0.017722145 -3.4038942
v  -1.1567446 0.016995482 -3.9264328
v  -1.2399668 0.015911916 -4.3817739
v  -1.6789887 0.47595951 -4.5268474
v  -2.1048481 0.49295315 -4.3325615
v  -2.3727508 0.47112671 -3.8542309
v  -1.745325 0.51558584 -2.9154315
v  -1.0688888 0.4135544 -3.3040051
v  -1.0672656 0.42702869 -3.9090259
v  -1.2670839 0.44156733 -4.3986068
v  -2.343044 0.44108701 -3.3173487
v  -0.004079388 4.8634462 1.4625587
v  -0.82909089 3.9186125 1.8600557
v  -1.5409275 3.9804804 2.2375154
v  -1.659139 4.0092511 2.7821777
v  -1.3566414 4.2575259 3.5108154
v  -1.3166538 3.2206364 3.2155828
v  -0.89199966 3.2575586 3.3929055
v  -0.62456554 4.6046877 3.7898149
v  -0.72593749 3.1965802 2.7334633
v  -0.97867978 3.2574918 2.11605
v  -1.4737103 3.2336171 2.2977931
v  -1.6503544 3.1940498 2.7916434
v  -1.3256803 2.1994944 3.0821426
v  -1.344873 0.94682837 3.1337781
v  -1.0004964 0.89193749 2.9984918
v  -0.97673392 2.2277229 3.0811508
v  -0.88750821 2.2894893 2.6452198
v  -0.99013013 0.83664715 2.5042305
v  -1.2782314 0.88686222 2.2344451
v  -1.1420357 2.2946589 2.1901529
v  -1.5766146 0.8804298 2.3855937
v  -1.5140152 2.2648191 2.3767505
v  -1.6753781 0.89532357 2.8210058
v  -1.5949442 2.217057 2.768342
v  -0.66361201 9.1871128 4.1225348
v  -1.9586142 0.012008253 3.2794187
v  -1.3324869 0.012056731 3.2226794
v  -1.3493788 0.012021631 3.6326616
v  -1.8087056 0.012198374 2.5012164
v  -1.3236245 0.016617466 2.2237389
v  -0.71809834 0.012051165 3.2168612
v  -0.8540073 0.012073863 2.5095096
v  -1.3170022 0.50070673 2.1432352
v  -1.8433393 0.54197651 2.4728675
v  -1.3600653 0.53464949 3.7769535
v  -0.6837402 0.5213275 3.3168957
v  -0.87987715 0.52874106 2.5107808
v  -1.9913249 0.53171664 3.3046417
v  -1.2713832 4.8593426 1.1114473
v  -0.55777931 9.7511396 4.956593
v  -1.2143179 8.0867033 4.9299059
v  -1.0089353 9.1249657 5.041985
v  -1.1687802 7.3781166 5.0645981
v  -0.32836747 10.785711 5.9684734
v  -1.319932 9.2034264 5.9077373
v  -1.2795641 10.091166 5.9315553
v  -0.87336189 8.3983936 5.8859663
v  -1.1062644 9.46064 7.0309806
v  -1.169395 10.251282 6.7488866
v  -0.89622796 8.6605625 7.0817847
v  -0.36424434 10.625445 6.6621647
v  -1.5306596 11.48816 6.5932498
v  -1.5069182 11.504912 6.6004872
v  -1.5158099 11.515011 6.5634236
v  -1.5428257 11.50465 6.5613284
v  -1.3018104 10.946857 6.6500945
v  -1.4187188 10.908243 6.1151385
v  -0.92861491 11.149547 6.1522717
v  -0.96120805 11.116225 6.6739082

# 0 UV coordinates

# 882 vertex normals
vn 0.6722793 0.73875844 0.047712881
vn 0.74885309 0.66267353 0.0091049261
vn 0.99284536 0.11638798 -0.026680563
vn 0.9883492 0.15019447 -0.024647666
vn 0.94856471 -0.28161553 -0.14462943
vn 0.925125 -0.37516996 -0.058234189
vn 0.98702466 -0.13484345 0.087174609
vn 0.97680724 0.14508298 0.15747556
vn 0.76184684 0.6463846 0.04214463
vn 0.4218263 0.89331001 -0.15511258
vn 0.35690364 0.933685 -0.029189903
vn 0.27235028 0.9614163 -0.038783692
vn 0.2525371 0.91631776 -0.31078395
vn 0.99534112 0.095766187 0.011168275
vn 0.64573836 0.76103151 0.06207113
vn 0.92912531 -0.36976337 -0.0010595708
vn -0.0073963618 -0.99996537 0.0038038727
vn -0.0097188214 -0.9997834 -0.01840614
vn -0.0076555214 -0.9999699 0.0013273431
vn 0.52341974 0.84749746 -0.088203222
vn 0.87279677 0.48596683 -0.045408297
vn 0.69190216 0.650998 -0.31220639
vn 0.53768837 0.82323521 -0.18213941
vn 0.99408519 0.10859742 0.0011142655
vn 0.86431181 0.35945848 -0.35178789
vn -0.0032760815 -0.9999516 0.0092770308
vn -0.003276082 -0.99995166 0.0092770308
vn -0.0032760815 -0.9999516 0.0092770299
vn -0.0032760818 -0.99995166 0.0092770299
vn 0.37462637 0.62000537 -0.68938267
vn 0.41769928 0.47607812 -0.7738713
vn 0.34577468 0.58892918 -0.73048085
vn 0.99477673 -0.10139968 0.011717659
vn 0.95350254 0.034781594 -0.29937097
vn 0.54550856 -0.83786023 0.020260394
vn 0.5313248 -0.84389269 -0.074424833
vn 0.94778705 -0.31144354 0.06857644
vn 0.74065018 -0.43752405 -0.50991195
vn 0.84263664 0.49101457 0.22106126
vn 0.9381476 0.19051601 0.28910667
vn 0.37561283 0.92345983 0.07833764
vn 0.38265589 0.91997516 0.084971473
vn 0.51507455 0.85282397 -0.085962057
vn 0.42626661 0.89945793 -0.09629114
vn 0.7433126 -0.66857362 0.022265671
vn 0.75209588 -0.65841204 0.029074771
vn 0.28822172 -0.95615238 0.051969402
vn 0.29988453 -0.95334816 0.034590304
vn 0.80366486 0.55379021 -0.21780542
vn 0.61574823 0.78639495 -0.049367424
vn 0.74606556 -0.66586715 0.0026501124
vn 0.31369442 -0.94927883 0.021573214
vn 0.99912465 -0.034952838 -0.022984294
vn 0.81234342 0.58245945 -0.028967477
vn 0.99620807 -0.064112604 -0.058812898
vn 0.74574232 -0.66564721 -0.027963895
vn 0.34119275 -0.93999231 0.0014598877
vn 0.9964605 -0.064551078 -0.05384966
vn 0.79231286 -0.6072734 -0.058816206
vn 0.39867827 -0.91575515 -0.049477115
vn 0.99782288 -0.05201764 -0.040543824
vn 0.80452543 -0.58993649 -0.068657652
vn 0.4281112 -0.90060502 -0.075041912
vn 0.99993747 -0.010656151 -0.0033726823
vn 0.99993753 -0.010656151 -0.0033726827
vn 0.99993747 -0.01065615 -0.0033726818
vn 0.99993753 -0.010656152 -0.0033726825
vn 0.46652219 -0.87736726 -0.11217657
vn 0.46652216 -0.87736732 -0.11217657
vn 0.46652219 -0.87736738 -0.11217657
vn 0.99810684 0.010563117 -0.060587749
vn 0.9981069 0.010563117 -0.060587749
vn 0.99810702 0.010563119 -0.060587756
vn 0.99810696 0.010563118 -0.060587753
vn 0.51131779 -0.84639996 -0.14886613
vn 0.51131779 -0.84640008 -0.14886613
vn 0.51131773 -0.84639996 -0.14886613
vn 0.51131779 -0.84639996 -0.14886612
vn 0.77037239 0.3643702 -0.52322155
vn 0.71845448 0.49049336 -0.49319294
vn 0.72269285 -0.071647763 -0.68744564
vn 0.77483535 0.075252965 -0.62766784
vn 0.39672604 -0.54331982 -0.73987293
vn 0.3610265 0.7485342 0.55619818
vn 0.36102647 0.74853414 0.55619812
vn 0.4338918 0.48191968 0.76124328
vn 0.42829752 0.51462018 0.74278355
vn 0.30924931 0.94660431 0.091133043
vn 0.32308486 0.94138253 0.097031884
vn 0.470272 0.88194472 -0.031901803
vn 0.41848612 0.90369147 -0.090614788
vn 0.49254394 0.86943454 0.03852319
vn 0.48874211 0.86888498 -0.078549244
vn 0.48746961 0.86970156 -0.077411212
vn 0.51865435 0.85374552 -0.046002194
vn 0.4989731 0.86585075 -0.036448289
vn 0.49855012 0.86606824 -0.037062149
vn 0.52333969 0.85212404 -0.00028066491
vn 0.52333969 0.85212415 -0.00028066494
vn 0.59399235 0.80275387 0.05252973
vn 0.59399223 0.80275381 0.05252973
vn 0.59399229 0.80275381 0.05252973
vn 0.59399229 0.80275375 0.05252973
vn 0.6263991 0.77568322 0.077068754
vn 0.62639916 0.77568328 0.077068768
vn 0.62639916 0.77568322 0.077068768
vn 0.62639916 0.77568328 0.077068761
vn 0.66241229 0.74628639 0.065319352
vn 0.66241229 0.74628639 0.065319344
vn 0.66241223 0.74628633 0.065319352
vn 0.57100093 0.71507567 -0.40326735
vn 0.016368181 0.41040075 -0.9117583
vn 0.0787756 -0.2541326 -0.96395588
vn 0.0019773005 0.52997333 -0.84801203
vn 0.94178355 -0.049175508 0.33260405
vn 0.90916288 -0.16485608 0.38242054
vn 0.14885028 -0.98852181 0.02584924
vn 0.13437009 -0.98935932 -0.055791415
vn 0.94548452 -0.18804336 0.26589236
vn 0.9277398 -0.26224467 0.26556852
vn 0.98168021 -0.18131237 0.058563892
vn 0.078835763 -0.99424857 -0.07248956
vn 0.078835763 -0.99424845 -0.072489552
vn 0.07883577 -0.99424857 -0.07248956
vn 0.9511677 -0.04723962 -0.30503827
vn -0.19625768 -0.11801381 -0.97342467
vn -0.29267907 -0.30332363 -0.90682614
vn -0.32536009 -0.23565586 -0.91575497
vn -0.33165365 -0.30712619 -0.89200866
vn -0.059277304 0.12703717 -0.99012506
vn -0.059277304 0.12703715 -0.99012506
vn 0.57835311 0.037188683 -0.81493843
vn 0.57587302 0.09083724 -0.81247693
vn 0.55646145 0.26213953 -0.78843743
vn 0.55646145 0.26213953 -0.78843737
vn 0.6000461 -0.096977152 -0.79406554
vn 0.62866187 -0.026413009 -0.77723008
vn 0.88025671 -0.22038195 0.42021415
vn 0.95984679 -0.14224128 0.24178816
vn -0.49952677 -0.66745073 0.55225223
vn -0.49952677 -0.66745067 0.55225217
vn -0.73924536 -0.55920523 0.37524107
vn -0.82818878 -0.48730725 0.27683032
vn 0.98680097 0.016181374 -0.16112716
vn -0.21552974 0.056692883 -0.97485018
vn -0.21570317 0.056861874 -0.9748019
vn 0.70303357 0.08082249 -0.70654887
vn 0.69758695 0.091334045 -0.71065497
vn 0.58383918 0.21363331 0.78325772
vn 0.94889873 0.10196035 0.29865554
vn -0.46847424 -0.1571735 0.86938393
vn -0.46847415 -0.15717348 0.86938381
vn -0.83345985 -0.1206914 0.53923845
vn -0.83979768 -0.11944135 0.52959746
vn 0.99485129 0.025057118 -0.098198928
vn -0.14557555 -0.18236336 -0.97239465
vn -0.14935882 -0.20867801 -0.96651191
vn 0.7033785 -0.10117789 -0.70357788
vn 0.70592588 -0.091101147 -0.70240235
vn 0.54482508 0.30212247 0.78223246
vn 0.88040233 0.20492564 0.42766482
vn -0.47070038 0.29190725 0.832605
vn -0.47070044 0.29190728 0.83260512
vn -0.80985743 0.19274439 0.55405802
vn -0.78261417 0.20474078 0.58787435
vn 0.99154264 0.024487959 -0.12745056
vn -0.97414643 -0.095070034 -0.20493975
vn -0.97414649 -0.095070034 -0.20493975
vn -0.97414649 -0.095070042 -0.20493977
vn -0.1587068 -0.27659744 -0.94779009
vn -0.15870678 -0.27659744 -0.94779003
vn 0.68705505 -0.15950012 -0.70888287
vn 0.68705505 -0.15950012 -0.70888299
vn -0.75944597 -0.55919921 -0.33247259
vn -0.76127255 -0.54482567 -0.35160935
vn -0.76395124 -0.47251263 -0.43944317
vn -0.76395124 -0.47251257 -0.43944317
vn -0.65420175 -0.73882574 0.16173033
vn -0.70131457 -0.71262372 0.018040052
vn -0.95708084 -0.28584921 -0.047818199
vn -0.95806742 -0.27373806 -0.084700726
vn -0.90759754 -0.15491489 -0.39021522
vn -0.9075976 -0.15491489 -0.39021525
vn -0.99775797 -0.066724084 -0.005191627
vn -0.99679446 -0.069339782 0.039907515
vn -0.96882641 -0.050676029 -0.24250188
vn -0.0070800269 -0.99995172 0.0068261693
vn -0.007080026 -0.99995166 0.0068261689
vn -0.96921265 0.07919886 0.23313987
vn 0.97664076 -0.049606338 0.20907409
vn 0.89703816 0.44110888 0.027302822
vn 0.53829253 0.83916032 -0.077788763
vn 0.41939968 0.90298676 -0.093373828
vn 0.39738676 0.91392905 -0.082568303
vn -0.45630315 -0.72289896 0.51884931
vn -0.45630309 -0.7228989 0.51884925
vn 0.84096879 0.54107457 -0.0031175152
vn 0.5403412 0.84143007 0.0051761731
vn 0.30487084 -0.36012635 0.88168174
vn 0.30487084 -0.36012635 0.8816818
vn 0.30487087 -0.36012638 0.8816818
vn 0.009669899 -0.99995273 -0.00099111511
vn 0.013359167 -0.99972963 -0.0190298
vn 0.0088990796 -0.99995655 0.0027758316
vn 0.0082929013 -0.99994922 0.0057377098
vn 0.0082929004 -0.9999491 0.0057377093
vn -0.00032737717 -0.99998695 0.0050874036
vn -0.00032737723 -0.99998707 0.0050874045
vn -0.0003273772 -0.99998701 0.005087404
vn -0.00032737717 -0.99998695 0.005087404
vn 0.18144855 0.095291197 -0.97877264
vn 0.79727924 0.26377237 -0.54292697
vn 0.68112904 0.17189489 -0.71169895
vn 0.086907841 0.012723428 -0.99613512
vn 0.89203656 0.34824678 -0.2880888
vn 0.8920365 0.34824675 -0.2880888
vn 0.050036445 0.78578365 0.61647409
vn -0.53134841 0.7057963 0.46853012
vn -0.55090445 0.70433241 0.44768319
vn 0.21591839 0.55711257 0.80187577
vn -0.81748337 0.57580978 0.012800748
vn -0.89165819 0.42880943 -0.14514837
vn -0.69928056 0.2737605 -0.66034979
vn -0.55611682 0.14663561 -0.81806594
vn -0.89412987 0.40962285 -0.18094425
vn 0.60971993 0.38178152 0.69461101
vn 0.52769768 -0.13558555 0.83854139
vn 0.3549251 -0.032220386 -0.93433934
vn 0.061224446 -0.053991295 -0.99666274
vn 0.98351294 -0.17904329 0.025407596
vn 0.98351306 -0.17904331 0.025407597
vn 0.983513 -0.17904331 0.025407597
vn 0.98351312 -0.17904331 0.025407599
vn -0.50274289 -0.15944384 0.84960419
vn -0.50274283 -0.15944383 0.84960413
vn -0.50274283 -0.15944383 0.84960419
vn -0.50274289 -0.15944384 0.84960413
vn -0.99030799 -0.13654691 -0.025397088
vn -0.99030787 -0.13654689 -0.025397087
vn -0.99030799 -0.13654692 -0.02539709
vn -0.9545095 -0.051332515 -0.29372877
vn -0.9545095 -0.051332518 -0.29372877
vn -0.95450956 -0.051332522 -0.29372877
vn -0.95450956 -0.051332522 -0.2937288
vn -0.21681352 -0.06985046 -0.97371089
vn 0.57946372 0.66131389 0.47632521
vn -0.83726364 0.53784502 0.098551132
vn 0.88230443 -0.050316725 -0.46798202
vn 0.88230443 -0.050316729 -0.46798202
vn 0.88230443 -0.050316732 -0.46798202
vn 0.88230443 -0.050316721 -0.46798199
vn 0.90806359 0.41698211 0.039324388
vn 0.42526433 -0.32607979 -0.84428787
vn 0.41716257 -0.53385949 -0.73550618
vn 0.42478701 -0.30427405 -0.85262722
vn 0.95511472 -0.28137621 0.092645198
vn 0.91937608 -0.18071385 -0.34941378
vn 0.17346534 -0.43305528 0.88451838
vn 0.094810821 -0.52334851 0.84682763
vn 0.27656683 -0.25050625 0.92777014
vn 0.2648319 -0.24258456 0.93328285
vn -0.80779469 -0.55013454 0.21170685
vn -0.8316102 -0.4946551 -0.25246918
vn -0.87861162 -0.32081088 -0.35372606
vn -0.93117607 -0.36401504 -0.02010591
vn 0.3787598 -0.095320866 -0.92057312
vn 0.3856653 -0.1070542 -0.91640693
vn 0.98039889 -0.066040717 0.18562423
vn 0.95052248 -0.025599543 -0.30959937
vn -0.012466282 -0.10213904 0.99469191
vn 0.018486287 -0.11704268 0.99295479
vn -0.19196087 -0.013161209 0.98131436
vn -0.19196086 -0.013161208 0.98131424
vn -0.97803879 -0.1129782 -0.17514569
vn -0.85104489 -0.095744386 -0.51629013
vn -0.80510366 -0.045657009 -0.59137422
vn -0.95900035 -0.053455733 -0.27831787
vn 0.36195025 -0.007805028 -0.93216479
vn 0.3702234 -0.0063472837 -0.92892098
vn 0.39872634 -0.0012799442 -0.91706896
vn 0.39872637 -0.0012799443 -0.91706908
vn 0.96006447 0.017666828 -0.27922037
vn 0.99992853 -0.0089074513 0.0079817362
vn 0.97055006 0.041453127 -0.23730637
vn 0.97055 0.041453123 -0.23730634
vn 0.37284896 -0.427838 0.82336998
vn 0.38666856 -0.26836935 0.88230681
vn 0.3863925 -0.27374768 0.88077408
vn 0.38966319 -0.14819472 0.90895593
vn 0.4050523 0.83129972 -0.38062251
vn 0.24352352 0.81331718 -0.52840453
vn 0.76621306 -0.41642034 0.48939943
vn 0.83807445 -0.089959092 0.53808796
vn -0.97985291 -0.11036249 0.16645822
vn -0.99204272 -0.054422621 0.11353174
vn -0.67221427 -0.54651207 0.49945202
vn -0.81761611 -0.39186013 0.42184088
vn -0.51824808 -0.6767962 0.52284396
vn -0.0027071375 -0.99999434 -0.0020069818
vn -9.7380434e-05 -1 -8.1599683e-05
vn -0.0024870464 -0.99999517 -0.0018446068
vn -0.0030398332 -0.99999285 -0.0022524323
vn -0.0030398339 -0.99999297 -0.0022524328
vn 0.0025269391 -0.99999523 -0.001767947
vn 9.8733553e-06 -0.99999994 -8.6019427e-05
vn 0.002916933 -0.99999368 -0.0020285449
vn 0.0032465584 -0.99999219 -0.0022488034
vn 0.0032465581 -0.99999219 -0.0022488032
vn -0.13146742 0.23669773 -0.96264768
vn 0.6974076 0.42583221 -0.57644564
vn 0.74358433 0.27636153 -0.60885674
vn -0.0052665803 0.020573601 -0.9997744
vn 0.81412429 0.5578469 -0.1612718
vn 0.81412423 0.5578469 -0.1612718
vn -0.36104187 0.77369124 0.52062529
vn -0.63498902 0.72324783 0.2714802
vn -0.55442697 0.75126404 0.35806867
vn -0.3610419 0.77369112 0.52062523
vn -0.82891619 0.35599375 -0.43147007
vn -0.77842146 0.21771021 -0.58878028
vn 0.55076575 -0.1490505 0.82124364
vn 0.55076575 -0.14905052 0.82124364
vn 0.55076569 -0.14905049 0.82124352
vn 0.55076575 -0.14905049 0.82124358
vn 0.53585964 -0.11738801 -0.83610666
vn -0.023855999 -0.099957101 -0.99470568
vn 0.98101676 -0.064836793 -0.18276314
vn 0.98101664 -0.064836793 -0.18276314
vn 0.98101676 -0.0648368 -0.18276314
vn 0.9810167 -0.064836785 -0.18276313
vn -0.54309714 -0.20497309 0.81426746
vn -0.5430972 -0.20497307 0.81426752
vn -0.54309714 -0.2049731 0.81426746
vn -0.54309714 -0.2049731 0.81426758
vn -0.9766652 0.01291956 -0.21437848
vn -0.9766652 0.012919561 -0.21437852
vn -0.9766652 0.012919559 -0.21437848
vn -0.97666526 0.012919561 -0.21437849
vn -0.58083409 -0.047963709 -0.81260771
vn 0.27057704 -0.61242306 -0.74278259
vn 0.7823804 -0.071986116 0.61862653
vn 0.0675776 -0.50105262 0.86277431
vn 0.079326227 -0.40952671 0.9088428
vn 0.079326212 -0.40952668 0.9088428
vn 0.070881389 -0.47640574 0.87636369
vn 0.39562088 0.73915124 -0.54510504
vn 0.39562088 0.73915124 -0.54510498
vn 0.38196152 0.73079503 -0.56572425
vn 0.38898674 0.73513514 -0.55521673
vn 0.86517638 0.20427032 0.45797753
vn 0.91194069 0.39943942 0.093873873
vn 0.93973458 0.2088989 -0.27066615
vn 0.95522994 0.092245139 0.28111652
vn 0.13695234 -0.3207629 0.93720603
vn 0.13695234 -0.32076293 0.93720609
vn 0.13695234 -0.3207629 0.93720609
vn 0.1369523 -0.32076284 0.93720591
vn 0.79264742 0.10113353 0.6012336
vn 0.8267839 0.016108073 0.562289
vn 0.37257776 0.7248624 -0.57944828
vn 0.37257776 0.72486246 -0.57944828
vn 0.9984315 0.05574441 -0.0052085822
vn 0.99624413 -0.083377078 -0.023362543
vn 0.29219809 -0.52228081 0.80115098
vn 0.29219812 -0.52228081 0.80115104
vn 0.35355097 -0.74890959 0.56047833
vn 0.3495377 -0.73142284 0.58552885
vn 0.90661299 -0.3023507 0.29434133
vn 0.98735011 0.0095709478 0.15826504
vn 0.96823347 -0.19593491 0.15534937
vn 0.39663109 -0.87422645 0.28002092
vn 0.39660227 -0.87428612 0.27987549
vn 0.9237408 -0.35312986 0.148331
vn 0.34378064 0.71689051 0.60653341
vn 0.34378061 0.71689051 0.60653347
vn 0.34378058 0.71689051 0.60653341
vn 0.34378067 0.71689057 0.60653353
vn 0.74232101 0.22705449 0.63040131
vn 0.61094606 0.43429926 0.6619131
vn 0.61094612 0.43429929 0.6619131
vn 0.77062935 0.16736017 0.61491537
vn 0.42317873 -0.78993946 0.44375151
vn 0.42317876 -0.78993934 0.44375154
vn 0.83360904 -0.014377201 0.55216771
vn 0.8336091 -0.014377202 0.55216777
vn 0.45546985 0.16502403 0.87482238
vn 0.45546988 0.16502404 0.87482244
vn 0.10482407 0.97202677 0.21018042
vn 0.10482407 0.97202682 0.21018043
vn 0.10482407 0.97202677 0.21018043
vn 0.10482405 0.97202665 0.2101804
vn 0.70112956 0.71214449 0.035601672
vn 0.71281683 0.55479771 -0.42905882
vn 0.80516058 0.52517456 -0.27551436
vn 0.80516052 0.52517456 -0.27551436
vn 0.63358396 0.56470561 -0.52884686
vn 0.55256349 0.56571108 -0.61208224
vn 0.55256343 0.56571102 -0.61208218
vn 0.48474282 0.75623858 0.43946269
vn 0.48474288 0.75623864 0.43946278
vn 0.48474291 0.7562387 0.43946275
vn 0.48474279 0.75623858 0.43946269
vn 0.2777341 0.74394399 0.60779214
vn 0.27773404 0.74394387 0.60779202
vn 0.27773404 0.74394399 0.60779208
vn 0.96843606 -0.17695017 0.17555688
vn 0.96843606 -0.17695019 0.17555688
vn 0.968436 -0.17695016 0.17555687
vn 0.96843612 -0.17695017 0.1755569
vn 0.1033756 0.23609063 -0.96621668
vn 0.12132894 0.28933531 -0.94950736
vn 0.1256935 0.30231658 -0.94488394
vn -0.59873062 0.78150707 0.175409
vn -0.59873062 0.78150702 0.17540902
vn -0.5916425 0.79185951 0.15138532
vn -0.59419221 0.78827447 0.15987159
vn -0.030736042 0.066450894 0.99731612
vn -0.030736037 0.066450886 0.99731612
vn -0.0025426748 0.059631802 0.99821723
vn -0.010676822 0.061604306 0.99804348
vn 0.91054577 -0.35295856 0.2152361
vn 0.91054589 -0.35295859 0.21523611
vn 0.91054577 -0.35295856 0.21523611
vn 0.91054583 -0.35295859 0.21523614
vn 0.21081223 0.55898368 -0.80193228
vn 0.21081221 0.55898362 -0.80193222
vn -0.57296425 0.81421953 0.093587965
vn -0.57296419 0.81421947 0.093587965
vn 0.12312793 0.028629769 0.99197775
vn 0.12312791 0.028629765 0.99197763
vn -0.67240906 0.73852575 0.0494534
vn -0.98882079 0.14657976 -0.027346822
vn -0.99147755 0.12642793 -0.03143296
vn -0.75279289 0.65824127 0.0046267682
vn -0.96020156 -0.24244358 -0.13868681
vn -0.92779833 -0.36655483 -0.06948138
vn -0.98894501 -0.1002143 0.10929233
vn -0.97767353 0.14355032 0.15345265
vn -0.76197231 0.64667886 0.034707762
vn -0.42595726 0.8905651 -0.15954337
vn -0.25577849 0.91422588 -0.31427419
vn -0.27628374 0.96026301 -0.039524421
vn -0.36245242 0.93152386 -0.029859353
vn -0.99684757 0.077361427 0.017608797
vn -0.65318155 0.75414658 0.067946613
vn -0.93045223 -0.36641243 0.00071291358
vn 0.0057962234 -0.99998176 0.0016803602
vn 0.0058132471 -0.99998277 0.00060930249
vn 0.0059533408 -0.99994838 -0.0082206912
vn -0.52242273 0.84782779 -0.090898335
vn -0.5374893 0.82335514 -0.18218517
vn -0.69253075 0.65254807 -0.30754238
vn -0.87529212 0.48130813 -0.046969309
vn -0.86526734 0.35965806 -0.34922564
vn -0.99424613 0.10711943 -0.00018798195
vn 0.0058044577 -0.99993879 0.0094208848
vn 0.0058044558 -0.99993867 0.0094208829
vn 0.0058044568 -0.99993873 0.0094208838
vn 0.0058044558 -0.99993867 0.0094208838
vn -0.42644966 0.44377846 -0.78816319
vn -0.37518752 0.62582439 -0.6837967
vn -0.34529394 0.60412717 -0.71819377
vn -0.95244348 0.033282883 -0.30289218
vn -0.99505383 -0.099015258 0.0079808608
vn -0.54526263 -0.83807141 0.018026682
vn -0.52411556 -0.84680712 -0.090667129
vn -0.94732779 -0.29350194 0.12816645
vn -0.80232882 -0.39257118 -0.44961792
vn -0.94159448 0.18800052 0.27938437
vn -0.84262967 0.4959493 0.20978452
vn -0.37878361 0.92223287 0.077520452
vn -0.38555166 0.91898072 0.082609497
vn -0.51323372 0.8538906 -0.086382806
vn -0.42569205 0.89989185 -0.094767272
vn -0.74278921 -0.66915816 0.02216845
vn -0.30076993 -0.95306426 0.034727871
vn -0.28909388 -0.95592433 0.051316679
vn -0.75253981 -0.65794355 0.028177954
vn -0.78574884 0.57848835 -0.21897519
vn -0.61358166 0.78787345 -0.052658841
vn -0.74591309 -0.6660369 0.0029021499
vn -0.31418228 -0.94911051 0.021881804
vn -0.99912351 -0.035010371 -0.022945179
vn -0.81129581 0.58395153 -0.028273227
vn -0.99620813 -0.064112604 -0.05881286
vn -0.74574232 -0.66564715 -0.027963813
vn -0.34119269 -0.93999231 0.0014599831
vn -0.99646038 -0.064551063 -0.053849641
vn -0.79231292 -0.60727334 -0.058816139
vn -0.39867833 -0.91575515 -0.049477011
vn -0.99782288 -0.052017637 -0.040543858
vn -0.80452543 -0.58993632 -0.068657592
vn -0.42811146 -0.90060502 -0.075041816
vn -0.99993747 -0.010656141 -0.0033726776
vn -0.99993747 -0.01065614 -0.0033726776
vn -0.99993747 -0.01065614 -0.0033726771
vn -0.99993747 -0.010656142 -0.0033726774
vn -0.46652281 -0.87736702 -0.11217646
vn -0.46652284 -0.87736696 -0.11217647
vn -0.46652284 -0.87736702 -0.11217647
vn -0.46652284 -0.87736702 -0.11217648
vn -0.99810684 0.010563105 -0.060587745
vn -0.99810696 0.010563106 -0.060587753
vn -0.99810702 0.010563107 -0.060587753
vn -0.9981069 0.010563105 -0.060587745
vn -0.51131803 -0.84639978 -0.14886631
vn -0.51131803 -0.84639978 -0.1488663
vn -0.51131797 -0.84639966 -0.14886628
vn -0.51131815 -0.8463999 -0.14886634
vn -0.77037197 0.36437029 -0.52322209
vn -0.77483505 0.075253129 -0.62766826
vn -0.72269255 -0.071647659 -0.68744594
vn -0.718454 0.49049339 -0.49319357
vn -0.39672604 -0.54331982 -0.73987293
vn -0.38664871 0.75246775 0.53319323
vn -0.47463256 0.51891738 0.710949
vn -0.48244059 0.48659047 0.72834086
vn -0.38664874 0.75246775 0.53319323
vn -0.31259859 0.94563484 0.089759752
vn -0.32564089 0.94089919 0.093094632
vn -0.422335 0.90205777 -0.08902166
vn -0.47521064 0.87924278 -0.033272587
vn -0.4996683 0.8654713 0.035929486
vn -0.48874396 0.86888433 -0.078544706
vn -0.52006632 0.85295123 -0.044778332
vn -0.48747149 0.86970097 -0.077407315
vn -0.49897304 0.86585069 -0.036448155
vn -0.49854994 0.8660683 -0.037062012
vn -0.52333963 0.85212409 -0.00028066491
vn -0.52333969 0.85212415 -0.00028066494
vn -0.59399229 0.80275381 0.052529819
vn -0.59399235 0.80275381 0.052529823
vn -0.59399235 0.80275387 0.052529823
vn -0.59399223 0.80275381 0.052529819
vn -0.62639928 0.77568305 0.077068664
vn -0.62639928 0.7756831 0.077068672
vn -0.62639928 0.77568316 0.077068664
vn -0.62639934 0.7756831 0.077068664
vn -0.66241229 0.74628639 0.065319449
vn -0.66241223 0.74628633 0.065319449
vn -0.66241223 0.74628633 0.065319434
vn -0.5710007 0.71507537 -0.4032681
vn -0.088433504 -0.2680386 -0.95934081
vn -0.019095937 0.41793293 -0.90827715
vn -0.0025348279 0.54337013 -0.8394894
vn -0.94409221 -0.051249504 0.32567361
vn -0.90899241 -0.16209731 0.38400167
vn -0.14601776 -0.98901093 0.023154598
vn -0.1164323 -0.99083501 -0.068479791
vn -0.98366368 -0.17351125 0.047953416
vn -0.93231124 -0.25171888 0.25967938
vn -0.94807696 -0.18246517 0.26049241
vn -0.077338405 -0.99435133 -0.072692648
vn -0.07733839 -0.99435127 -0.072692633
vn -0.077338412 -0.99435133 -0.072692648
vn -0.94732392 -0.03956227 -0.3178243
vn 0.19794846 -0.10567755 -0.97449917
vn 0.36142194 -0.31621847 -0.87714309
vn 0.3618733 -0.24133867 -0.90044612
vn 0.30675375 -0.29936799 -0.90348274
vn 0.058257785 0.12614584 -0.99029952
vn 0.058257788 0.12614584 -0.99029952
vn -0.57334012 0.031389117 -0.81871599
vn -0.55882984 0.2420004 -0.79318655
vn -0.5588299 0.24200042 -0.7931866
vn -0.57258123 0.071583524 -0.81671691
vn -0.58246493 -0.089630581 -0.80789912
vn -0.59746182 -0.026273036 -0.8014667
vn -0.97017068 -0.13367219 0.20223893
vn -0.88588315 -0.21691921 0.41006973
vn 0.48926964 -0.66968733 0.55868965
vn 0.82532966 -0.48971891 0.28108069
vn 0.73610502 -0.56085986 0.37892649
vn 0.48926958 -0.66968727 0.55868959
vn -0.97731733 0.023850542 -0.21043281
vn 0.30721334 0.063972391 -0.94948798
vn 0.30645564 0.062693849 -0.94981802
vn -0.62894857 0.09341082 -0.77181488
vn -0.62983787 0.084953405 -0.77206671
vn -0.96994042 0.085309833 0.22789881
vn -0.62529677 0.20849462 0.75201994
vn 0.44077548 -0.15774056 0.88364875
vn 0.83496821 -0.11871185 0.53734124
vn 0.82643569 -0.12037668 0.55001223
vn 0.44077542 -0.15774055 0.88364863
vn -0.98600507 0.010643646 -0.16637459
vn 0.2705884 -0.22081521 -0.93702865
vn 0.26844555 -0.19278336 -0.94380683
vn -0.61881775 -0.11514643 -0.77704942
vn -0.61767668 -0.12217335 -0.7768842
vn -0.91852218 0.1796822 0.3521809
vn -0.58935922 0.29728866 0.7511825
vn 0.45717764 0.29894146 0.83762914
vn 0.78124785 0.20770179 0.58865255
vn 0.80547279 0.19689813 0.55896759
vn 0.45717767 0.29894143 0.8376292
vn -0.98254114 -0.0028011005 -0.18602432
vn 0.97968602 -0.087012157 -0.1806767
vn 0.97968608 -0.087012157 -0.18067671
vn 0.27505246 -0.29193372 -0.91603529
vn 0.27505252 -0.29193377 -0.91603541
vn -0.60428447 -0.19331619 -0.77296126
vn -0.60428441 -0.19331616 -0.7729612
vn 0.75929254 -0.55916113 -0.33288699
vn 0.7637971 -0.47234908 -0.43988678
vn 0.76379704 -0.47234908 -0.43988681
vn 0.76111001 -0.54485935 -0.3519088
vn 0.65325451 -0.73876315 0.16579394
vn 0.701437 -0.71248746 0.018645011
vn 0.95751661 -0.28402209 -0.049933422
vn 0.90815163 -0.15485898 -0.38894644
vn 0.90815157 -0.15485896 -0.38894644
vn 0.95838094 -0.27265227 -0.084656641
vn 0.99734366 -0.064755522 0.033351973
vn 0.99804378 -0.062444553 -0.0030331614
vn 0.97293812 -0.046414942 -0.22635598
vn 0.97293806 -0.046414938 -0.22635597
vn 0.0057739709 -0.9999786 0.0030797753
vn 0.0057739704 -0.99997854 0.0030797748
vn 0.97322285 0.073325194 0.21785474
vn 0.97322285 0.073325187 0.21785475
vn -0.97674268 -0.05289625 0.20778753
vn -0.90180022 0.43143556 0.024890723
vn -0.53882587 0.83849168 -0.081230327
vn -0.41881132 0.90342003 -0.091811314
vn -0.40225661 0.91200441 -0.08023528
vn 0.45383513 -0.72054327 0.52426249
vn 0.45383507 -0.72054327 0.52426243
vn -0.83909738 0.54397732 -0.0020805814
vn -0.54332495 0.83948559 0.0078729494
vn -0.3431074 -0.34582984 0.87331492
vn -0.3431074 -0.34582981 0.8733148
vn -0.3431074 -0.34582984 0.87331486
vn -0.0048110848 -0.99998838 -0.00021707859
vn -0.0046201465 -0.99998796 0.0016578018
vn -0.0056664869 -0.99994677 -0.0086186081
vn -0.0044717952 -0.9999851 0.003114399
vn -0.0044717952 -0.99998504 0.003114399
vn -0.0010187785 -0.99998498 0.0053650467
vn -0.0010187788 -0.9999851 0.0053650471
vn -0.0010187788 -0.99998516 0.0053650476
vn -0.11693706 0.10038254 -0.98805326
vn -0.062225599 0.01109905 -0.99800038
vn -0.65221226 0.18487304 -0.73514688
vn -0.75794578 0.27697328 -0.5905962
vn -0.86747485 0.37473905 -0.32719752
vn -0.86747479 0.37473902 -0.32719749
vn -0.053694516 0.78266597 0.62012166
vn -0.20274065 0.5525319 0.80845821
vn 0.55793184 0.69339442 0.4559783
vn 0.53752369 0.69490653 0.47767475
vn 0.82569325 0.5639258 0.014774173
vn 0.89197743 0.42632747 -0.15040368
vn 0.89515895 0.40545106 -0.18520254
vn 0.57749712 0.14261436 -0.80383962
vn 0.7394495 0.28393361 -0.61040652
vn -0.60036939 0.37307113 0.70737153
vn -0.5113011 -0.13511664 0.84871346
vn -0.51130104 -0.13511662 0.8487134
vn -0.070473276 -0.056778405 -0.99589646
vn -0.34511495 -0.029002907 -0.93811226
vn -0.99130088 -0.1316025 0.0017998266
vn -0.99130094 -0.1316025 0.0017998267
vn -0.99130088 -0.1316025 0.0017998265
vn 0.4942286 -0.1946364 0.8472631
vn 0.4942286 -0.19463637 0.8472631
vn 0.49422857 -0.19463636 0.84726304
vn 0.98818851 -0.14603652 -0.04644081
vn 0.98818862 -0.14603652 -0.046440814
vn 0.98818851 -0.14603651 -0.046440806
vn 0.95524579 -0.071086451 -0.28714496
vn 0.95524579 -0.071086444 -0.28714493
vn 0.95524573 -0.071086444 -0.28714493
vn 0.95524579 -0.071086444 -0.28714496
vn 0.23435241 -0.081831954 -0.96870136
vn -0.57636964 0.66222411 0.47880822
vn 0.83915633 0.5393616 0.070040233
vn -0.88259012 -0.036508422 -0.46872345
vn -0.88259012 -0.03650843 -0.46872354
vn -0.88259012 -0.036508426 -0.46872348
vn -0.88259012 -0.036508426 -0.46872354
vn -0.8890304 0.45175171 0.074468181
vn 0.71840119 -0.68293917 -0.13226424
vn 0.79962623 -0.56103778 0.21408974
vn 0.82308257 -0.48958126 -0.2878288
vn -0.92082018 -0.29577285 -0.25418234
vn -0.92696542 -0.34355626 0.15067938
vn -0.15191737 -0.44608259 0.88200426
vn -0.25170091 -0.22472084 0.94135392
vn -0.26237816 -0.23019831 0.93710536
vn -0.069731437 -0.55247611 0.83060682
vn 0.94064629 -0.33650944 -0.044112865
vn 0.8721233 -0.28608879 -0.39693099
vn -0.42734048 -0.38315746 -0.81888378
vn -0.42732102 -0.35305709 -0.83231449
vn -0.40791807 -0.11905946 -0.90522248
vn -0.40487108 -0.10387067 -0.90845484
vn -0.96015668 -0.038582411 -0.27678591
vn -0.9757778 -0.069802389 0.20732895
vn 0.01743453 -0.099120885 0.99492264
vn 0.19229272 -0.014951392 0.98122364
vn 0.19229273 -0.014951393 0.9812237
vn -0.010323311 -0.1121095 0.99364227
vn 0.97519803 -0.111358 -0.19128048
vn 0.95528144 -0.053365164 -0.29084277
vn 0.7979762 -0.046305969 -0.60090739
vn 0.84553277 -0.09537559 -0.52533585
vn -0.41832829 -0.0098527996 -0.9082424
vn -0.45054567 0.015090748 -0.89262587
vn -0.45054573 0.015090749 -0.89262587
vn -0.42494789 -0.0047791977 -0.90520519
vn -0.96933651 0.016211897 -0.24520177
vn -0.97651094 0.046833631 -0.21031633
vn -0.97651082 0.046833623 -0.2103163
vn -0.99904579 -0.0072936583 0.04306126
vn -0.35698271 -0.42108333 0.83381778
vn -0.36644277 -0.27254841 0.88962746
vn -0.36669278 -0.26424307 0.89202696
vn -0.36730766 -0.14619085 0.91853857
vn -0.40569365 0.82960963 -0.38361493
vn -0.24315687 0.812567 -0.52972579
vn -0.73745644 -0.44546708 0.50765818
vn -0.82941359 -0.087582603 0.55172682
vn 0.98104089 -0.10735671 0.16134802
vn 0.99293262 -0.053497288 0.10593694
vn 0.64306319 -0.55295706 0.52981907
vn 0.81407708 -0.37448689 0.44388968
vn 0.45072657 -0.70973825 0.541403
vn 0.0029405039 -0.99999338 -0.0021192676
vn 0.0027015654 -0.9999944 -0.0019497522
vn 6.9926777e-05 -1 -8.2730789e-05
vn 0.0033051984 -0.99999177 -0.0023780009
vn 0.0033051982 -0.99999166 -0.0023780004
vn -0.0027710083 -0.99999446 -0.0018955927
vn -0.0032059432 -0.99999249 -0.0021806373
vn -9.8733826e-06 -0.99999994 -8.6018255e-05
vn -0.0035715422 -0.9999907 -0.002420241
vn -0.003571542 -0.99999064 -0.002420241
vn 0.10659994 0.22384177 -0.96877825
vn 0.024921412 0.016289648 -0.99955672
vn -0.74045599 0.27359101 -0.61389977
vn -0.702672 0.40140748 -0.58747256
vn 0.35547885 0.77634066 0.5205093
vn 0.35547885 0.7763406 0.52050924
vn 0.55155319 0.75342786 0.35796028
vn 0.63316166 0.72489053 0.2713668
vn 0.78141969 0.22049846 -0.58374953
vn 0.82759076 0.36162347 -0.42932746
vn -0.54694355 -0.15651976 0.82240754
vn -0.5469436 -0.15651977 0.8224076
vn -0.5469436 -0.15651976 0.8224076
vn 0.014822925 -0.096160531 -0.99525547
vn -0.51460618 -0.10557376 -0.85090232
vn 0.54322535 -0.20522226 0.81411916
vn 0.54322535 -0.20522223 0.8141191
vn 0.54322541 -0.20522225 0.81411916
vn 0.54322541 -0.20522223 0.8141191
vn 0.9766984 0.013071823 -0.21421777
vn 0.9766984 0.013071824 -0.21421778
vn 0.97669846 0.013071824 -0.2142178
vn 0.97669846 0.013071823 -0.2142178
vn 0.58466107 -0.052849758 -0.80955446
vn -0.98125046 -0.063508004 -0.18197316
vn -0.98125046 -0.063508004 -0.18197317
vn -0.98125046 -0.063508004 -0.18197314
vn -0.98125052 -0.063508011 -0.18197317
vn -0.81998867 0.54907107 -0.16167778
vn -0.81998861 0.54907101 -0.16167776
vn -0.082123809 -0.98200941 -0.17003857
vn -0.46723887 -0.86092401 -0.20123978
vn -0.77211726 -0.067491114 0.63188607
vn -0.0498734 -0.5272463 0.84824753
vn -0.05676192 -0.49815372 0.86522877
vn -0.073809274 -0.42228904 0.90345126
vn -0.073809274 -0.42228904 0.9034512
vn -0.38235623 0.7435925 -0.54851955
vn -0.37371257 0.7407341 -0.55825794
vn -0.3648397 0.73768705 -0.56807554
vn -0.3823562 0.74359256 -0.54851961
vn -0.85383308 0.20588931 0.4780989
vn -0.95258206 0.091758132 0.29011685
vn -0.94516599 0.20272267 -0.25605604
vn -0.90931898 0.40277481 0.10445853
vn -0.12615736 -0.31865147 0.93943894
vn -0.12615734 -0.31865147 0.93943894
vn -0.12615736 -0.3186515 0.93943894
vn -0.12615734 -0.31865147 0.93943888
vn -0.77946508 0.10589865 0.61742979
vn -0.81846672 0.018256813 0.57426369
vn -0.3530688 0.73347288 -0.58082694
vn -0.35306886 0.73347294 -0.580827
vn -0.9957332 -0.092051849 -0.0064686751
vn -0.99855441 0.053307001 0.0068829046
vn -0.27718166 -0.53255451 0.79972249
vn -0.33612248 -0.72629184 0.59960151
vn -0.34227759 -0.74900013 0.56731367
vn -0.90338802 -0.30862173 0.29772902
vn -0.96559995 -0.20242284 0.16322248
vn -0.98669535 0.011573015 0.16216762
vn -0.40485987 -0.87359726 0.2700302
vn -0.40638486 -0.87133628 0.27499908
vn -0.91486216 -0.37137899 0.15844525
vn -0.33072472 0.71301663 0.61824626
vn -0.33072472 0.71301669 0.61824632
vn -0.33072472 0.71301669 0.61824626
vn -0.73587078 0.20594706 0.64504254
vn -0.76168817 0.14306821 0.63195139
vn -0.60898972 0.4303661 0.66627038
vn -0.60898983 0.43036622 0.66627043
vn -0.45206344 -0.77248061 0.44599602
vn -0.45206341 -0.77248055 0.44599605
vn -0.8172847 -0.050753586 0.57399446
vn -0.81728476 -0.05075359 0.57399446
vn -0.52185231 0.12872416 0.84326756
vn -0.52185225 0.12872417 0.84326762
vn -0.083323419 0.97583449 0.2020005
vn -0.083323427 0.97583449 0.20200051
vn -0.083323427 0.97583449 0.2020005
vn -0.70229852 0.71144599 0.024928009
vn -0.71655023 0.55469155 -0.4229337
vn -0.63658071 0.56545204 -0.524432
vn -0.80851763 0.52377164 -0.26825821
vn -0.80851763 0.52377158 -0.26825821
vn -0.5550319 0.5669995 -0.60864693
vn -0.55503196 0.56699955 -0.60864687
vn -0.48476294 0.75624615 0.4394277
vn -0.48476297 0.75624627 0.4394277
vn -0.48476291 0.75624609 0.43942761
vn -0.27138892 0.72950882 0.62782544
vn -0.27138892 0.72950888 0.62782544
vn -0.27138889 0.72950888 0.62782544
vn -0.96462923 -0.18377574 0.18898945
vn -0.96462923 -0.18377572 0.18898946
vn -0.96462911 -0.18377571 0.18898943
vn -0.96462923 -0.18377574 0.18898946
vn -0.10347545 0.2358193 -0.96627223
vn -0.12586091 0.30214512 -0.94491661
vn -0.12141623 0.28894559 -0.94961482
vn -0.10347545 0.23581931 -0.96627223
vn 0.59068209 0.79102784 0.15927841
vn 0.58707076 0.79628044 0.14589447
vn 0.58513612 0.79895061 0.13890122
vn 0.59068203 0.79102784 0.15927839
vn 0.015503321 0.082647026 0.99645823
vn -0.00070616067 0.078233711 0.99693477
vn -0.0076962514 0.076323718 0.99705338
vn 0.015503321 0.082647033 0.99645823
vn -0.90765083 -0.35707816 0.22060135
vn -0.90765089 -0.35707816 0.22060138
vn -0.90765089 -0.35707822 0.22060139
vn -0.90765095 -0.35707816 0.22060138
vn -0.21108824 0.55875772 -0.80201721
vn -0.21108823 0.55875766 -0.80201721
vn 0.56997555 0.81697094 0.087671965
vn 0.5699755 0.81697094 0.087671958
vn -0.10919832 0.048122954 0.99285448
vn -0.10919831 0.048122954 0.99285436
vn -0.75133806 -0.64680547 -0.13089564
vn 0.74300969 0.055723645 0.66695678
vn 0.74300969 0.055723634 0.66695672
vn 0.74300975 0.055723652 0.66695684
vn 0.74300969 0.055723645 0.66695684
vn -0.40171042 0.80516124 0.4362846
vn -0.40171033 0.80516118 0.43628457
vn -0.40171039 0.80516118 0.43628457
vn -0.40171036 0.80516118 0.4362846
vn -0.72277063 0.055877559 0.68882525
vn -0.72277057 0.055877555 0.68882525
vn -0.72277057 0.055877559 0.68882525
vn -0.72277069 0.055877566 0.68882519
vn 0.410992 0.80383044 0.43004918
vn 0.410992 0.80383033 0.43004921
vn 0.410992 0.80383039 0.43004921
vn 0.41099203 0.80383039 0.43004924
vn 0.47810599 -0.86094183 -0.17376362
vn 0.11485107 -0.98075318 -0.15790026
vn -0.16912666 -0.59500015 -0.78572953
vn -0.015343433 -0.62701023 -0.77885997
vn -0.01534343 -0.62701011 -0.77885991
vn 0.016250582 -0.60718352 -0.79439533
vn 0.016250584 -0.60718352 -0.79439533
vn -0.4084878 -0.62150401 -0.66848361

# Mesh 'CatMesh2' with 384 faces
g CatMesh2
usemtl lambert1
f  1//1 2//2 3//3 4//4
f  5//5 6//6 4//4 3//3
f  7//7 5//5 3//3 8//8
f  8//8 3//3 2//2 9//9
f  10//10 11//11 12//12 13//13
f  14//14 15//15 1//1 4//4
f  16//16 14//14 4//4 6//6
f  17//17 18//18 19//19
f  20//20 21//21 22//22 23//23
f  22//22 21//21 24//24 25//25
f  26//26 27//27 28//28 29//29
f  23//23 22//22 30//30 31//31
f  22//22 25//25 32//32 30//30
f  24//24 33//33 34//34 25//25
f  35//35 16//16 6//6 36//36
f  37//37 38//38 5//5 7//7
f  9//9 39//39 40//40 8//8
f  2//2 11//11 10//10 9//9
f  41//41 11//11 2//2 1//1
f  15//15 42//42 41//41 1//1
f  43//43 44//44 20//20 23//23
f  45//45 31//46 46//47 47//48
f  31//49 48//50 43//43 23//23
f  49//51 45//45 47//48 50//52
f  51//53 52//54 45//45 49//51
f  53//55 51//53 49//51 54//56
f  54//56 49//51 50//52 55//57
f  56//58 53//55 54//56 57//59
f  57//59 54//56 55//57 58//60
f  59//61 56//58 57//59 60//62
f  60//62 57//59 58//60 61//63
f  62//64 59//65 60//66 63//67
f  63//68 60//69 61//70 64//70
f  65//71 62//72 63//73 66//74
f  66//75 63//76 64//77 67//78
f  68//79 65//80 66//81 69//82
f  69//82 66//81 67//83
f  70//84 71//85 72//86 73//87
f  41//41 74//88 12//12 11//11
f  42//42 75//89 74//88 41//41
f  43//43 76//90 77//91 44//44
f  48//50 78//92 76//90 43//43
f  51//93 79//94 80//95 52//54
f  53//96 81//97 79//94 51//93
f  56//98 82//99 81//97 53//96
f  59//100 83//101 82//102 56//103
f  62//104 84//105 83//106 59//107
f  65//108 85//109 84//108 62//110
f  68//79 85//111 65//80
f  30//30 86//112 46//113 31//31
f  30//30 32//32 87//114 86//112
f  88//115 89//116 37//37 7//7
f  90//117 35//35 36//36 91//118
f  33//33 92//119 93//120 94//121
f  95//122 35//123 90//124
f  34//34 33//33 94//121 96//125
f  97//126 98//127 99//128 100//129
f  87//130 32//131 98//127 97//126
f  34//132 98//133 32//134 25//135
f  99//136 98//133 34//132 96//137
f  94//121 93//120 101//138 102//139
f  101//140 93//141 103//142 104//143
f  96//125 94//121 102//139 105//144
f  100//129 99//128 106//145 107//146
f  99//136 96//137 105//147 106//148
f  102//139 101//138 108//149 109//150
f  108//151 101//152 104//153 110//154
f  105//144 102//139 109//150 111//155
f  107//146 106//145 112//156 113//157
f  106//148 105//147 111//158 112//159
f  109//150 108//149 114//160 115//161
f  114//162 108//163 110//164 116//165
f  111//155 109//150 115//161 117//166
f  118//167 119//168 113//167 120//169
f  113//157 112//156 121//170 120//171
f  112//159 111//158 117//172 121//173
f  122//174 123//175 97//176 100//177
f  103//178 95//179 123//175 122//174
f  124//180 122//181 100//182 107//183
f  104//143 103//142 122//181 124//180
f  110//154 104//153 124//184 119//185
f  119//185 124//184 107//186 113//186
f  26//187 29//188 17//17 19//19
f  110//164 119//189 118//189 116//165
f  16//190 92//119 33//33 24//24
f  21//21 14//191 16//190 24//24
f  20//20 15//192 14//191 21//21
f  44//44 42//193 15//192 20//20
f  44//44 77//91 75//194 42//193
f  93//195 35//196 95//179 103//178
f  52//54 48//197 31//46 45//45
f  52//54 80//95 78//198 48//197
f  40//40 88//115 7//7 8//8
f  125//199 126//200 127//201
f  19//202 18//203 128//204
f  26//205 19//202 128//204 129//206
f  27//207 26//208 129//209 130//210
f  121//211 117//212 131//213 132//214
f  131//213 117//212 115//215 133//216
f  114//217 116//218 134//219 135//220
f  116//218 136//221 134//219
f  118//222 120//223 137//224 136//225
f  120//223 121//211 132//214 137//224
f  138//226 135//220 18//227 17//227
f  132//214 131//213 28//228 27//229
f  29//230 133//231 138//232 17//233
f  135//234 134//235 128//236 18//237
f  134//238 136//238 129//239 128//240
f  136//241 137//242 130//243 129//244
f  137//224 132//214 27//229 130//245
f  115//246 114//217 135//220 138//226
f  116//247 118//222 136//225
f  131//248 133//249 29//250 28//251
f  133//252 115//246 138//226
f  139//253 38//254 140//255
f  38//38 37//37 141//256 140//257
f  142//258 143//259 144//260 145//261
f  146//262 139//263 147//264 148//265
f  140//255 149//266 147//267 139//253
f  141//256 150//268 149//269 140//257
f  151//270 152//271 153//272 154//273
f  155//274 156//275 157//276 158//277
f  156//278 159//279 160//280 157//281
f  159//282 161//283 162//284 160//285
f  93//286 92//287 35//288
f  16//289 35//288 92//287
f  163//290 10//10 13//13 164//291
f  142//292 141//256 37//37 89//116
f  142//292 145//293 150//268 141//256
f  152//294 155//274 158//277 153//295
f  143//296 146//262 148//265 144//297
f  165//298 146//262 143//296
f  166//299 167//300 168//301
f  169//302 166//299 168//301 170//303
f  168//304 167//305 171//306
f  171//306 172//307 170//308 168//304
f  157//309 160//310 173//311 174//312
f  173//311 160//310 162//313 175//314
f  154//315 153//316 176//317 177//318
f  176//317 153//316 158//319 178//320
f  158//319 157//309 174//312 178//320
f  175//321 177//322 167//323 166//324
f  174//312 173//311 169//325 170//326
f  173//327 175//328 166//329 169//330
f  177//331 176//332 171//333 167//334
f  171//335 176//336 178//337 172//338
f  178//320 174//312 170//326 172//339
f  5//5 38//38 179//340
f  150//268 161//283 159//282 149//269
f  147//267 149//266 159//279 156//278
f  148//265 147//264 156//275 155//274
f  144//297 148//265 155//274 152//294
f  145//261 144//260 152//271 151//270
f  150//268 145//293 151//341 161//283
f  89//342 88//343 180//344 165//345
f  142//258 89//342 165//345 143//259
f  163//346 164//347 181//348 182//349
f  40//350 39//351 183//352 184//353
f  180//354 88//355 185//356 186//357
f  88//358 40//350 184//353 185//359
f  182//349 181//348 187//360 188//361
f  184//353 183//352 189//362 190//363
f  186//364 185//365 191//366 192//367
f  185//359 184//353 190//363 191//368
f  190//363 189//362 193//369 194//370
f  192//367 191//366 195//371 196//372
f  191//368 190//363 194//370 195//373
f  197//374 198//375 71//376 70//377
f  194//378 193//379 70//380 73//381
f  196//372 195//371 126//382 125//383
f  195//384 194//378 73//381 126//385
f  127//386 126//387 73//87 72//86
f  188//388 187//389 198//390 197//391
f  163//290 39//392 9//9 10//10
f  183//393 39//394 163//395 182//396
f  189//397 183//393 182//396 188//398
f  199//399 200//400 201//401 202//402
f  70//403 193//404 197//405
f  193//406 189//407 203//408 204//409
f  189//410 188//410 205//411 203//412
f  188//413 197//414 206//415 205//416
f  197//417 193//418 204//419 206//420
f  204//421 203//422 200//423 199//424
f  203//412 205//411 201//425 200//426
f  205//416 206//415 202//427 201//428
f  206//420 204//419 199//429 202//430
f  207//431 208//432 209//433 210//434
f  211//435 209//433 208//432 212//436
f  213//437 214//438 209//433 211//435
f  214//438 215//439 210//434 209//433
f  216//440 13//441 12//442 217//443
f  218//444 208//432 207//431 219//445
f  220//446 212//436 208//432 218//444
f  221//447 222//448 223//449
f  224//450 225//451 226//452 227//453
f  226//452 228//454 229//455 227//453
f  230//456 231//457 232//458 233//459
f  225//451 234//460 235//461 226//452
f  226//452 235//461 236//462 228//454
f  229//455 228//454 237//463 238//464
f  239//465 240//466 212//436 220//446
f  241//467 213//437 211//435 242//468
f  215//439 214//438 243//469 244//470
f  210//434 215//439 216//440 217//443
f  245//471 207//431 210//434 217//443
f  219//445 207//431 245//471 246//472
f  247//473 225//451 224//450 248//474
f  249//475 47//476 46//477 234//478
f  234//479 225//451 247//473 250//480
f  251//481 50//482 47//476 249//475
f  252//483 251//481 249//475 253//484
f  254//485 255//486 251//481 252//483
f  255//486 55//487 50//482 251//481
f  256//488 257//489 255//486 254//485
f  257//489 58//490 55//487 255//486
f  258//491 259//492 257//489 256//488
f  259//492 61//493 58//490 257//489
f  260//494 261//495 259//496 258//497
f  261//498 64//499 61//500 259//501
f  262//502 263//503 261//504 260//505
f  263//506 67//507 64//508 261//509
f  68//510 69//511 263//512 262//513
f  69//511 67//514 263//512
f  264//515 265//516 72//517 71//518
f  245//471 217//443 12//442 74//519
f  246//472 245//471 74//519 75//520
f  247//473 248//474 77//521 76//522
f  250//480 247//473 76//522 78//523
f  252//524 253//484 80//525 79//526
f  254//527 252//524 79//526 81//528
f  256//529 254//527 81//528 82//530
f  258//531 256//532 82//533 83//534
f  260//535 258//536 83//537 84//538
f  262//539 260//540 84//541 266//539
f  68//510 262//513 266//542
f  235//461 234//460 46//543 86//544
f  235//461 86//544 87//545 236//462
f  267//546 213//437 241//467 268//547
f  90//548 91//549 240//466 239//465
f  238//464 269//550 270//551 271//552
f  95//553 90//554 239//555
f  237//463 272//556 269//550 238//464
f  97//557 273//558 274//559 275//560
f  87//561 97//557 275//560 236//562
f  237//563 228//564 236//565 275//566
f  274//567 272//568 237//563 275//566
f  269//550 276//569 277//570 270//551
f  277//571 278//572 279//573 270//574
f  272//556 280//575 276//569 269//550
f  273//558 281//576 282//577 274//559
f  274//567 282//578 280//579 272//568
f  276//569 283//580 284//581 277//570
f  284//582 285//583 278//584 277//585
f  280//575 286//586 283//580 276//569
f  281//576 287//587 288//588 282//577
f  282//578 288//589 286//590 280//579
f  283//580 289//591 290//592 284//581
f  290//593 291//594 285//595 284//596
f  286//586 292//597 289//591 283//580
f  293//598 294//599 287//598 295//598
f  287//587 294//600 296//601 288//588
f  288//589 296//602 292//603 286//590
f  297//604 273//605 97//606 123//607
f  279//608 297//604 123//607 95//609
f  298//610 281//611 273//612 297//613
f  278//572 298//610 297//613 279//573
f  285//583 295//614 298//615 278//584
f  295//614 287//616 281//617 298//615
f  230//618 222//448 221//447 231//619
f  285//595 291//594 293//620 295//621
f  220//622 229//455 238//464 271//552
f  227//453 229//455 220//622 218//623
f  224//450 227//453 218//623 219//624
f  248//474 224//450 219//624 246//625
f  248//474 246//625 75//626 77//521
f  270//627 279//608 95//609 239//628
f  253//484 249//475 234//478 250//629
f  253//484 250//629 78//630 80//525
f  243//469 214//438 213//437 267//546
f  125//631 127//632 299//633
f  222//634 300//635 223//636
f  230//637 301//638 300//635 222//634
f  233//639 302//640 301//641 230//639
f  296//642 303//643 304//644 292//645
f  304//644 305//646 289//647 292//645
f  290//648 306//649 307//650 291//651
f  291//651 307//650 308//652
f  293//653 308//654 309//655 294//656
f  294//656 309//655 303//643 296//642
f  310//657 221//658 223//659 306//649
f  303//643 233//660 232//661 304//644
f  231//662 221//663 310//664 305//663
f  306//665 223//666 300//667 307//666
f  307//668 300//669 301//670 308//668
f  308//671 301//672 302//673 309//674
f  309//655 302//675 233//660 303//643
f  289//676 310//657 306//649 290//648
f  291//677 308//654 293//653
f  304//678 232//679 231//680 305//681
f  305//682 310//657 289//676
f  311//683 146//684 312//685
f  242//468 313//686 314//687 241//467
f  315//688 316//689 317//690 318//691
f  146//684 319//692 320//693 312//685
f  313//694 312//695 320//696 321//697
f  314//687 313//686 321//698 322//699
f  323//700 324//701 325//702 326//703
f  327//704 328//705 329//706 330//707
f  330//708 329//709 331//710 332//711
f  332//712 331//713 333//714 334//715
f  270//716 239//717 271//718
f  220//719 271//718 239//717
f  335//720 164//721 13//441 216//440
f  315//722 268//547 241//467 314//687
f  315//722 314//687 322//699 316//723
f  326//724 325//725 328//705 327//704
f  318//726 317//727 319//692 146//684
f  165//728 318//726 146//684
f  336//729 337//730 338//731
f  339//732 340//733 337//730 336//729
f  337//734 341//735 338//736
f  341//735 337//734 340//737 342//738
f  329//739 343//740 344//741 331//742
f  324//743 345//744 346//745 325//746
f  346//745 347//747 328//748 325//746
f  328//748 347//747 343//740 329//739
f  348//749 336//750 338//750 345//751
f  343//740 340//752 339//753 344//741
f  345//754 338//755 341//756 346//757
f  341//758 342//759 347//760 346//761
f  347//747 342//762 340//752 343//740
f  344//763 339//764 336//765 348//766
f  344//741 348//767 333//768 331//742
f  311//769 349//770 240//466 91//549
f  211//435 212//436 240//466 349//770
f  322//699 321//698 332//712 334//715
f  320//696 330//708 332//711 321//697
f  319//692 327//704 330//707 320//693
f  317//727 326//724 327//704 319//692
f  316//689 323//700 326//703 317//690
f  322//699 334//715 323//771 316//723
f  268//772 165//773 180//774 267//775
f  315//688 318//691 165//773 268//772
f  335//776 350//777 181//778 164//779
f  243//780 351//781 352//782 244//783
f  180//784 186//785 353//786 267//787
f  267//788 353//789 351//781 243//780
f  350//777 354//790 187//791 181//778
f  351//781 355//792 356//793 352//782
f  186//794 192//795 357//796 353//794
f  353//789 357//797 355//792 351//781
f  355//792 358//798 359//799 356//793
f  192//795 196//800 360//801 357//796
f  357//797 360//802 358//798 355//792
f  361//803 264//804 71//805 198//805
f  358//806 265//807 264//808 359//809
f  196//800 125//810 299//811 360//801
f  360//812 299//813 265//807 358//806
f  127//814 72//517 265//516 299//815
f  354//816 361//816 198//817 187//818
f  335//720 216//440 215//439 244//819
f  352//820 350//821 335//822 244//823
f  356//824 354//825 350//821 352//820
f  362//826 363//827 364//828 365//828
f  264//829 361//830 359//831
f  359//832 366//833 367//834 356//835
f  356//836 367//837 368//838 354//839
f  354//840 368//841 369//842 361//843
f  361//844 369//845 366//846 359//847
f  366//848 362//849 365//850 367//851
f  367//837 365//852 364//853 368//838
f  368//841 364//854 363//855 369//842
f  369//845 363//856 362//857 366//846
f  146//262 311//858 139//263
f  154//859 162//860 161//861 151//862
f  324//863 333//864 348//865 345//866
f  324//867 323//868 334//869 333//870
f  154//871 177//872 175//873 162//874
f  179//875 311//876 91//118 36//36
f  5//5 179//875 36//36 6//6
f  242//468 349//877 311//878 312//879
f  211//435 349//877 242//468
f  311//880 179//340 38//38 139//881
f  242//882 312//695 313//694

